<?xml version="1.0" encoding="utf-8" ?>
<svg xmlns="http://www.w3.org/2000/svg" xmlns:xlink="http://www.w3.org/1999/xlink" width="512" height="512">
	<path fill="#213C3F" transform="scale(0.666667 0.666667)" d="M0 0.1875C1.70241 -0.185587 3.61693 -0.00979729 5.35479 -0.0090068C8.44963 -0.00759905 11.5445 -0.00845752 14.6393 -0.00881649C26.6055 -0.0102045 38.5716 -0.00977825 50.5378 -0.00976663C98.2915 -0.00972023 146.045 -0.00952629 193.799 -0.0102393C385.199 -0.0130972 576.6 -0.00755292 768 0L768 767.812C766.298 768.186 764.383 768.01 762.645 768.009C759.55 768.008 756.456 768.008 753.361 768.009C741.395 768.01 729.428 768.01 717.462 768.01C669.708 768.01 621.955 768.01 574.201 768.01C382.801 768.013 191.4 768.008 -0 768L0 0.1875Z"/>
	<defs>
		<linearGradient id="gradient_0" gradientUnits="userSpaceOnUse" x1="320.43799" y1="662.43799" x2="454.98001" y2="110.148">
			<stop offset="0" stop-color="#C9A75C"/>
			<stop offset="1" stop-color="#F2DEAE"/>
		</linearGradient>
	</defs>
	<path fill="url(#gradient_0)" transform="scale(0.666667 0.666667)" d="M609.521 211.042L609.582 211.088C614.834 217.247 619.375 224.329 623.897 231.037C629.809 239.806 635.517 248.842 640.246 258.317C660.021 297.938 666.142 343.263 664.466 387.165C663.79 404.864 661.282 422.451 657.829 439.8C649.504 481.62 634.475 522.713 609.008 557.25C598.278 571.803 585.277 584.871 572.016 597.122C557.323 610.695 540.333 622.349 522.96 632.192C498.07 646.293 471.797 657.105 443.789 663.277C420.292 668.454 394.979 670.184 370.954 669.199C354.177 668.511 337.502 666.905 321.098 663.213C293.881 657.087 267.555 646.051 243.375 632.258C220.453 619.182 198.746 603.401 180.837 583.909C166.762 568.589 153.896 552.43 143.44 534.4C122.213 497.795 110.742 455.932 105.633 414.188C103.515 396.886 102.424 380.012 103.189 362.573C104.037 343.258 106.084 323.849 110.71 305.041C113.765 292.617 118.091 280.768 123.108 269.023C138.82 232.24 162.251 199.79 191.786 172.795C242.881 126.094 310.727 100.511 379.723 99.4471C389.654 99.294 399.434 99.9238 409.312 100.858C414.417 101.341 419.544 102.206 424.658 102.436L425.95 102.957L426.717 102.92L477.412 115.173C516.708 129.588 554.023 151.523 583.639 181.362C587.611 185.365 592.624 189.668 595.885 194.273L595.912 194.374L609.521 211.042Z"/>
	<path fill="#F4E1B2" transform="scale(0.666667 0.666667)" d="M424.658 102.436L425.95 102.957L425.241 103.57C424.693 104.051 424.171 104.412 423.562 104.809C422.85 104.192 422.689 103.843 422.447 102.938C423.245 102.917 423.902 102.67 424.658 102.436Z"/>
	<path fill="#F4E1B2" transform="scale(0.666667 0.666667)" d="M419.93 120.611C421.16 120.217 421.73 120.145 423 120.375C423.681 119.697 423.751 119.627 424.688 119.441L425.156 119.814L425.531 119.627C425.914 119.932 426.221 120.214 426.559 120.562C425.817 121.18 426.226 120.918 425.327 121.34L419.93 120.611Z"/>
	<path fill="#F4E1B2" transform="scale(0.666667 0.666667)" d="M595.912 194.374L609.521 211.042L609.168 211.506C608.289 210.785 608.004 210.439 607.5 209.438L606.938 209.434C606.284 208.78 606.096 209.059 605.438 208.684C604.673 208.248 603.362 206.662 602.816 205.98L602.441 205.5L601.877 204.748C601.449 203.832 602.012 204.496 601.268 203.753C600.521 203.005 599.876 202.226 599.252 201.373L599.25 200.812L598.691 200.438L599.066 199.875C598.624 198.9 598.13 198.461 597.566 197.625C596.676 196.304 595.986 196.038 595.912 194.374Z"/>
	<path fill="#F4E1B2" transform="scale(0.666667 0.666667)" d="M426.717 102.92L477.412 115.173C476.803 115.422 477.014 115.383 476.443 115.464C475.826 115.55 475.701 115.965 475.312 116.434L474.752 115.873L474.566 115.312C473.427 115.307 473.276 115.297 472.312 115.875L471.562 114.75L471.562 114.191C470.135 114.172 469.253 115.799 467.625 115.875L467.062 115.5C466.015 115.03 465.455 114.932 464.463 114.139L464.066 113.812L463.406 113.906L462.941 113.438C462.034 113.566 462.503 113.531 461.531 113.531L461.25 113.062C460.36 112.681 459.83 112.742 458.883 112.828L458.438 112.875L457.691 111.938C456.364 112.599 455.108 112.406 453.656 112.406L453.375 111.938C452.664 112.201 452.14 112.43 451.371 112.43C450.504 112.43 451.183 112.361 450.352 112.453L450 112.5C449.225 111.919 449.253 111.952 449.066 111L448.684 111.375L448.312 111.934L447 111.842C446.451 112.171 446.713 112.123 446.252 112.123L446.156 111.469L445.5 111.934C444.889 111.329 444.453 111.561 443.625 111.559C442.829 111.03 442.303 111.186 441.375 111.184C440.767 110.582 439.244 110.659 438.375 110.717L437.812 110.809L437.531 110.344L437.062 110.809L436.862 110.587C435.954 109.685 435.35 109.313 434.062 109.309L433.031 108.094L432.562 108.559C432.097 107.866 432.183 107.845 432.191 107.062L431.531 107.531C431.128 106.858 431.417 107.134 430.594 106.781L429.938 106.875L429.75 105.938C428.908 105.935 428.799 106.049 428.066 105.562C427.723 104.881 427.932 105.148 427.5 104.717L426.656 105.281C425.764 105.281 425.789 105.216 425.066 104.812C425.565 104.004 425.966 103.504 426.717 102.92Z"/>
	<path fill="#213C3F" transform="scale(0.666667 0.666667)" d="M371.134 118.829C376.44 118.122 382.211 118.396 387.584 118.441C390.949 118.47 394.586 118.28 397.907 118.831C403.074 118.942 408.187 119.468 413.324 119.99C415.202 120.181 418.167 120.923 419.93 120.611L425.327 121.34C457.648 126.14 488.521 136.578 516.411 153.821L516.421 153.851C528.733 160.086 539.903 169.425 550.198 178.53C557.178 184.704 564.52 191.424 570.089 198.915C563.603 199.86 556.316 199.377 549.744 199.407C528.858 199.503 508.343 200.016 488.094 194.121C461.155 186.278 434.816 176.037 411.121 160.825C400.402 153.943 389.662 146.155 383.431 134.765C380.272 139.46 377.045 143.52 372.787 147.291C368.357 151.215 363.354 154.532 358.419 157.777C336.287 172.329 311.834 182.258 286.557 189.938C277.639 192.647 268.389 195.366 259.18 196.851C247.718 198.7 236.01 198.674 224.43 198.841C215.736 198.966 206.976 199.259 198.293 198.733C221.359 171.444 251.538 150.622 284.587 137.228C294.836 133.075 305.419 129.422 316.206 126.946C326.366 123.823 337.407 122.272 347.948 120.968C355.65 120.015 363.364 118.968 371.134 118.829Z"/>
	<path fill="#111C20" transform="scale(0.666667 0.666667)" d="M371.134 118.829C376.44 118.122 382.211 118.396 387.584 118.441C390.949 118.47 394.586 118.28 397.907 118.831L395.301 119.109C396.774 119.369 398.275 119.51 399.489 120.458C394.365 120.255 389.272 119.966 384.142 120.116C381.112 120.204 378.083 120.34 375.055 120.474C373.646 120.536 371.992 120.79 370.6 120.622L370.645 120.411L377.822 119.324C376.126 118.678 373.024 118.983 371.134 118.829Z"/>
	<path fill="#050A0C" transform="scale(0.666667 0.666667)" d="M316.206 126.946C326.366 123.823 337.407 122.272 347.948 120.968C355.65 120.015 363.364 118.968 371.134 118.829C373.024 118.983 376.126 118.678 377.822 119.324L370.645 120.411L370.6 120.622L324.188 126.934L324.188 126.375L324.704 126.346C325.406 126.287 325.149 126.341 325.683 126.141C326.418 125.864 327.153 125.891 327.938 125.625L328.875 125.438C329.329 125.33 329.717 125.164 330.147 125.003C330.763 124.771 331.417 124.85 332.063 124.819C333.019 124.774 333.789 124.203 334.823 124.125C335.339 124.086 335.705 124.069 336.188 123.887C336.826 123.647 337.48 123.683 338.156 123.656L338.812 123.184L337.312 123L336.75 123.559L336.252 123.513L334.594 123.469L334.125 123.934C333.45 123.936 333.182 123.802 332.625 124.217C331.629 124.261 330.845 124.121 330 124.684L329.061 124.594L328.5 125.059L327.984 125.007C327.19 124.942 327.495 124.952 326.625 125.062L326.25 125.434L325.219 125.344L324.75 125.809L324.234 125.757C323.073 125.662 322.316 125.982 321.27 126.396C320.754 126.6 320.416 126.591 319.875 126.562L319.5 126.934L318.844 126.844L318.562 127.309C317.598 127.151 317.703 127.195 316.781 127.406L316.309 127.384L316.206 126.946Z"/>
	<path fill="#050A0C" transform="scale(0.666667 0.666667)" d="M397.907 118.831C403.074 118.942 408.187 119.468 413.324 119.99C415.202 120.181 418.167 120.923 419.93 120.611L425.327 121.34C457.648 126.14 488.521 136.578 516.411 153.821L516.421 153.851L516.246 154.313L515.825 154.295L515.438 154.309C515.04 153.717 515.216 153.812 514.693 153.522L513 152.625L511.594 151.781L506.25 148.875C505.793 148.58 505.659 148.344 505.113 148.207L504.75 148.125L503.25 147.188L502.688 147.184L502.312 146.625C501.767 146.469 501.322 146.337 500.816 146.062L500.344 145.781C499.516 145.319 498.683 144.731 497.812 144.375L496.875 144C495.912 143.466 496.72 143.742 495.844 143.477C495.239 143.295 495.438 143.4 494.816 143.062L491.438 141.375L490.5 141.092C490.137 140.907 489.808 140.517 489.375 140.438L488.812 140.434L488.25 139.967L487.688 140.059C487.315 139.504 487.401 139.434 486.75 139.217C485.549 138.816 486.755 139.449 485.771 138.902C485.245 138.61 485.34 138.616 484.688 138.375L483.75 138.092C482.592 137.502 481.334 137.309 480.191 136.688C479.361 136.236 478.557 135.622 477.615 135.434C477.147 135.34 476.698 135.282 476.25 135.092L475.691 134.812C474.415 134.283 475.887 135.043 474.48 134.285C473.75 133.892 473.827 133.977 473.062 134.059C472.62 133.399 472.528 133.364 471.75 133.217C470.848 133.046 470.252 132.623 469.395 132.451C468.273 132.227 467.446 131.789 466.406 131.344L465.75 131.434C465.096 130.785 465.116 130.968 464.25 130.967L463.875 130.688L463.312 130.684L463.031 130.219C461.706 130.088 460.867 129.393 459.562 129.375C458.868 129.365 458.713 129.108 458.156 128.719C457.254 128.71 456.933 128.73 456.117 128.291C455.415 127.913 455.721 127.951 454.992 127.95C454.352 127.949 454.626 128.051 454.014 127.78C453.485 127.546 453.385 127.623 452.812 127.684L452.531 127.219L451.5 127.217L450.938 127.309C449.683 126.268 448.934 126.798 447.656 126.094L447 126.184L446.625 125.812C445.939 125.837 445.449 125.881 444.797 125.623L444.375 125.438C443.187 125.209 443.131 124.865 441.75 125.059C441.11 124.714 440.822 124.56 440.062 124.5L439.594 124.498C438.887 124.074 438.27 124.184 437.461 124.263L437.062 124.309L436.781 123.844C435.638 123.966 434.962 123.403 433.623 123.513C432.742 123.585 432.299 123.092 431.25 123.184C430.707 122.646 430.511 122.768 429.75 122.717C429.104 122.674 428.57 122.672 427.945 122.483C427.342 122.301 427.663 122.352 427.031 122.29C426.353 122.224 426.765 122.293 426.082 122.156L424.875 121.967C423.941 121.939 423.302 122.101 422.344 121.781C421.512 121.504 421.59 121.51 420.75 121.592C419.306 120.725 417.709 121.644 416.25 121.125L415.688 120.75C414.701 120.94 413.942 120.988 412.969 120.656L412.312 120.375C411.239 120.499 410.184 120.372 409.125 120.467L408.562 120.559L408.281 120.094L406.623 120.138C405.732 120.21 405.343 119.702 404.344 119.811L405.375 120.375C406.52 121.075 407.357 120.463 408.562 120.75C409.569 120.99 410.636 120.88 411.562 121.125C412.3 121.32 413.152 121.298 413.812 121.5C414.892 121.829 415.813 121.611 416.812 121.875C417.749 122.122 418.264 122.221 419.25 122.25C420.392 123.012 421.584 122.296 422.818 122.76C423.48 123.009 424.035 122.847 424.688 123C425.537 123.199 426.541 123.157 427.312 123.375C427.99 123.567 428.544 123.583 429.188 123.75C430.459 124.08 429.296 124.021 430.312 124.069C430.977 124.101 431.605 124.026 432.239 124.265L432.561 124.406L433.312 124.5C434.544 124.828 433.45 124.769 434.431 124.823C435.12 124.86 435.784 124.826 436.467 124.963L436.875 125.062L437.812 125.25C438.331 125.406 438.538 125.536 439.112 125.584C439.809 125.642 439.533 125.586 440.168 125.713L442.5 126.188C443.089 126.3 443.626 126.542 444.186 126.656L444.938 126.75C445.657 126.942 446.536 127.003 447.204 127.254C447.638 127.417 448.044 127.58 448.5 127.688L449.438 127.875C450.174 128.124 450.792 128.134 451.498 128.344C452.22 128.559 452.589 128.877 453.392 129C453.982 129.091 454.696 129.141 455.25 129.375C456.077 129.724 456.215 130.02 457.178 130.084C458.04 130.141 457.713 130.023 458.467 130.4C459.173 130.753 458.784 130.656 459.498 130.799L459.938 130.875C460.767 131.146 460.618 131.154 461.438 131.066L461.719 131.531L462.748 131.719L463.969 132.281C464.557 132.443 464.919 132.316 465.539 132.598C466.088 132.847 466.531 133.098 467.133 133.219C468.4 133.472 469.789 133.921 470.998 134.344C471.771 134.614 472.43 134.984 473.25 135.188L474 135.375C474.675 135.684 474.967 136.014 475.74 136.084C476.446 136.148 476.11 136.043 476.812 136.395C477.545 136.761 477.17 136.641 477.92 136.846C478.728 137.066 478.123 136.848 479.062 137.25L479.062 137.744C462.035 131.364 444.469 126.687 426.494 123.967C420.92 123.123 415.279 122.298 409.688 121.599C406.29 121.174 402.871 121.034 399.489 120.458C398.275 119.51 396.774 119.369 395.301 119.109L397.907 118.831Z"/>
	<path fill="#111C20" transform="scale(0.666667 0.666667)" d="M155.608 511.688C158.193 512.243 160.886 513.726 163.392 514.652C172.583 518.045 181.707 521.597 190.782 525.291C210.719 533.408 230.517 542.224 249.827 551.741C259.691 556.602 269.337 561.882 279.145 566.846C291.564 573.131 304.083 579.225 316.472 585.569C328.168 591.558 339.612 598.033 351.308 604.034C356.287 606.588 361.286 609.405 366.501 611.438C375.666 615.01 383.791 616.344 393.398 613.482C399.839 611.563 405.972 608.521 411.977 605.534C420.075 601.505 428.062 597.266 436.116 593.152C463.271 579.28 490.269 565.061 517.6 551.535C536.337 542.262 555.412 533.196 574.804 525.368C587.186 520.37 600.019 516.455 612.218 511.056L599.206 534.39L598.681 535.231C585.533 556.136 568.374 573.88 549.419 589.6C531.171 604.734 511.013 618.119 489.431 628.02C473.812 635.185 457.235 640.515 440.484 644.292C404.268 652.459 364.807 653.096 328.515 645.241C309.54 641.134 291.021 634.512 273.463 626.275C264.168 621.914 254.841 617.191 246.178 611.675C213.138 590.638 183.75 562.139 163.961 528.191C161.127 523.33 156.814 517.195 155.608 511.688Z"/>
	<defs>
		<linearGradient id="gradient_1" gradientUnits="userSpaceOnUse" x1="383.06201" y1="581.43799" x2="383.83701" y2="228.101">
			<stop offset="0" stop-color="#392220"/>
			<stop offset="1" stop-color="#043239"/>
		</linearGradient>
	</defs>
	<path fill="url(#gradient_1)" transform="scale(0.666667 0.666667)" d="M587.614 228.014L594.535 227.565C604.386 240.874 613.91 254.019 621.372 268.875C627.096 280.272 631.266 292.299 634.668 304.57C644.517 340.093 645.949 377.263 640.473 413.625C637.622 432.552 633.719 451.419 627.344 469.482C626.238 472.615 625.214 476.365 623.416 479.15C612.114 484.75 599.182 487.92 587.25 492.027C567.536 498.813 547.944 505.945 528.626 513.792C495.057 527.429 462.789 543.74 430.79 560.668C420.692 566.009 410.809 571.806 400.671 577.055C393.197 580.925 385.273 583.664 376.903 580.891C368.132 577.986 359.96 572.679 351.82 568.342C334.92 559.338 318.197 550.031 301.209 541.19C263.484 521.554 223.386 506.011 183.145 492.396C170.121 487.99 157.081 483.068 143.724 479.75C141.328 470.762 138.389 461.945 135.849 453C133.127 443.416 130.853 433.62 129.022 423.826C126.841 412.165 125.788 400.21 125.13 388.379C122.572 342.384 130.056 295.328 153.368 255.072C156.811 249.128 160.673 243.46 164.585 237.818C167.021 234.305 169.513 230.412 172.549 227.398C175.092 228.091 177.496 228.655 180.136 228.862C180.302 234.51 179.979 240.25 179.908 245.908C179.772 256.64 179.703 267.372 179.738 278.105C179.768 287.585 179.822 297.065 179.852 306.545C179.873 312.988 180.155 319.714 179.375 326.109C178.714 331.531 177.171 336.897 174.783 341.812C167.658 356.48 155.483 368.19 140.701 375.017C138.162 376.189 135.394 377.007 132.753 377.923C138.116 378.927 143.941 378.787 149.39 379.12C159.081 379.712 168.719 380.472 178.367 381.557C226.579 386.981 274.364 400.976 315.967 426.394C324.408 431.551 332.756 437.111 340.189 443.659C361.449 462.386 375.478 487.36 380.515 515.25C381.911 522.979 382.411 531.022 383.028 538.847C383.263 541.825 383.051 544.977 383.755 547.872C384.439 546.946 384.349 545.531 384.446 544.406C384.702 541.442 384.928 538.474 385.184 535.51C386.175 524.023 388.176 511.99 391.466 500.955C396.081 485.475 403.994 471.234 414.177 458.723C427.985 441.758 445.26 430.081 464.376 419.916C499.509 401.232 538.44 390.062 577.688 384.225C590.347 382.342 603.027 381.061 615.78 380.027C622.155 379.51 628.55 379.268 634.912 378.616C631.212 376.928 627.393 375.541 623.719 373.789C616.395 370.297 609.329 365.776 603.574 360.019C596.544 352.989 591.316 344.232 588.917 334.565C587.109 327.278 587.27 319.716 587.274 312.26C587.279 304.175 587.386 296.091 587.439 288.006C587.569 268.01 587.582 248.011 587.614 228.014Z"/>
	<path fill="#5D2219" transform="scale(0.666667 0.666667)" d="M155.307 468.273C171.974 473.365 188.718 478.086 205.263 483.585C241.409 495.601 276.246 510.12 309.898 527.978C325.972 536.508 341.218 546.463 357.023 555.488C359.37 556.828 361.74 558.144 363.984 559.652C364.406 559.936 366.309 561.474 366.602 561.5C366.833 561.521 367.048 561.376 367.271 561.314L367.701 562.026C368.288 561.985 368.594 561.992 369.184 562.125C368.665 562.649 368.97 562.422 368.248 562.781C367.185 562.648 366.187 562.505 365.402 561.721C364.894 561.213 365.105 561.36 364.564 560.999L362.344 559.406C361.691 559.078 360.998 558.443 360.375 558.188C359.11 557.669 357.81 556.86 356.625 556.125L354 554.625C353.452 554.303 353.178 554.058 352.536 553.931L352.127 553.873C351.142 552.774 349.98 552.373 348.75 551.625L345.783 549.887C345.269 549.52 345.622 549.732 344.895 549.34L343.031 548.344L342.094 547.873C341.444 547.411 340.973 546.745 340.125 546.562L339.562 546.559L339.189 546.094C338.968 545.917 338.326 545.426 338.062 545.25L337.5 544.967C336.965 544.646 336.308 544.448 335.812 544.125C335.252 543.76 335.018 543.293 334.354 542.936L333.75 542.625C333.322 542.361 333.147 542.073 332.638 541.944L331.312 541.684C330.973 541.006 331.18 541.272 330.75 540.842L330.094 540.748C329.522 540.059 329.826 540.3 329.162 539.904C328.64 539.593 328.75 539.711 328.348 539.309L328.125 539.062L327.375 539.059L326.812 539.434C325.924 539.434 325.705 539.57 324.941 539.062L325.125 538.312L324.562 538.684C323.456 538.318 324.313 537.906 323.252 537.373C322.497 536.995 322.482 536.927 321.941 536.25C321.385 536.52 321.696 536.478 321.002 536.248C320.889 535.623 320.746 535.066 320.531 534.469C320.16 534.835 320.381 534.748 319.877 534.748L319.875 534.188L318.75 533.625C318.2 533.287 317.971 533.037 317.332 532.764L316.125 532.217C315.621 531.914 315.147 531.656 314.625 531.375C313.95 531.012 313.552 530.853 312.804 530.704L312.377 530.623L312.375 530.062L311.25 529.684L310.689 529.219C309.738 528.654 308.504 528.222 307.5 527.625C306.261 526.888 305.122 526.31 303.844 525.656C303.276 525.365 302.802 525.02 302.175 524.862L301.875 524.809C301.27 524.113 300.596 524.069 299.895 523.523L299.531 523.219C298.311 523.386 298.343 522.628 297.375 522.188C296.029 521.576 294.837 520.941 293.531 520.219L292.875 520.309L292.316 519.938C291.822 519.628 291.359 519.373 290.894 519.012L290.531 518.719L289.875 518.809L289.125 518.062C288.901 518.022 288.574 517.978 288.375 517.875C287.867 517.614 287.708 517.336 287.109 517.137L283.875 515.809C283.029 515.285 282.423 514.888 281.438 514.5C280.812 514.254 280.286 514.098 279.721 513.72L279.375 513.467C278.252 513.65 277.48 512.311 276.246 512.131L275.625 512.059C275.186 511.555 274.962 511.309 274.307 511.09L273.094 510.748L272.625 510.467C271.835 510.036 272.308 510.367 271.701 509.936C271.244 509.611 271.104 509.751 270.562 509.809C270.13 509.27 270.331 509.397 269.767 509.115L269.25 508.875L268.125 508.312L267.562 508.309C267.114 507.93 266.919 507.768 266.332 507.649L265.875 507.559C264.095 506.588 266.497 507.509 264.692 506.865L264 506.625L262.875 506.062L262.312 506.059L261.938 505.5L260.625 505.309C259.414 504.834 257.503 504.01 256.397 503.344L255.941 503.062L255.375 502.875C254.039 502.314 252.655 501.625 251.262 501.204L250.875 501.092L250.5 500.812L249.938 500.809C249.059 500.245 248.392 499.795 247.316 499.688L246.938 499.684L246.656 499.219L245.441 498.938L245.062 498.934L244.781 498.469L243.938 498.559C243.463 497.967 243.347 497.996 242.625 497.812L241.875 497.625C241.152 497.294 240.682 496.927 239.877 496.785L239.25 496.684L238.875 496.312C237.986 496.307 237.396 495.873 236.625 495.467C235.717 495.578 235.059 494.963 234 494.809C233.438 494.342 233.213 494.186 232.5 494.062C232.048 493.984 231.405 493.98 231 493.684C230.251 493.137 229.677 493.121 228.75 492.934L228.281 492.469L227.625 492.559C226.596 491.705 225.82 491.985 224.771 491.402C223.717 490.816 222.591 490.462 221.438 490.125L220.5 489.842C219.709 489.423 219.293 489.402 218.441 489.188L217.877 488.998L217.125 488.809C216.421 488.375 216.191 488.075 215.368 487.828L213.75 487.312L213 487.125C212.017 486.675 210.961 486.518 210.076 486.041L209.531 485.719L208.875 485.809C208.119 485.305 207.147 484.871 206.25 484.688L205.5 484.592C204.998 484.218 205.262 484.345 204.627 484.172L204.094 484.031L203.438 483.75C202.008 483.39 203.968 484.192 202.5 483.559C201.99 483.339 201.54 483.115 200.988 483.012L199.875 482.809C199.034 482.472 198.715 481.958 197.696 481.956C196.995 481.955 196.673 481.803 196.078 481.433L195.75 481.217C195.15 481.315 194.786 481.277 194.25 480.934L193.689 480.469L192.75 480.559C192.27 480.16 192.039 479.948 191.441 479.812C190.697 479.644 191.005 479.811 190.219 479.531C189.342 479.219 188.624 478.875 187.691 478.688L187.125 478.592C186.46 478.327 186.035 478.003 185.25 477.938L184.688 477.934L184.125 477.467C183.413 477.451 183.065 477.419 182.414 477.094C181.495 476.635 180.464 476.873 179.625 476.434C178.536 475.864 177.857 475.877 176.719 475.498L175.125 474.938L174 474.562C172.88 474.39 173.947 474.766 172.998 474.39C172.236 474.089 171.62 473.906 170.795 473.84L170.25 473.809L169.875 473.438L169.125 473.434L168.656 472.969C167.98 472.993 167.484 473.018 166.875 472.684C165.826 472.107 164.873 472.168 163.788 471.737L163.125 471.467L162.562 471.559C161.609 470.767 161.322 470.704 160.125 470.809C159.512 470.383 159.092 469.986 158.339 469.91L157.875 469.875C157.05 469.586 156.746 469.158 155.795 469.124L155.087 469.112L155.307 468.273Z"/>
	<path fill="#FAFCFC" transform="scale(0.666667 0.666667)" d="M348.277 481.421C350.531 483.591 352.383 486.465 354.188 489.019C365.823 505.487 372.839 525.603 374.94 545.587C375.225 548.293 375.747 551.467 375.625 554.179C375.607 554.573 375.574 554.656 375.495 554.992C369.2 531.616 356.86 510.204 341.806 491.357L342.2 491.009C342.759 491.491 343.282 491.891 343.693 492.508C343.97 492.926 344.201 493.201 344.549 493.56L345.094 494.156C345.563 494.995 345.143 494.6 345.629 495.096C346.027 495.503 346.448 495.841 346.793 496.303L348 498L349.125 499.5C349.505 500.072 349.808 500.58 350.296 501.071L350.623 501.377L350.625 501.938L354 506.812L354.855 508.045L355.125 508.5C355.982 509.853 356.617 511.492 357.75 512.625C358.554 511.048 359.369 511.726 360.562 511.125L360.566 510.562L361.406 510.281L360.941 509.812L361.312 509.441L362.156 509.531C361.989 508.314 363.163 507.559 363.375 506.25L362.627 505.406L362.533 504.75C361.804 503.872 361.761 502.764 361.125 501.75L359.625 499.125L358.688 497.625L358.408 497.25C358.177 496.833 358.156 496.518 357.844 496.102L357.283 495.375L356.531 493.969L355.482 492.146L354.75 491.062C354.154 490.135 353.556 489.34 352.823 488.514L352.502 488.156L352.5 487.688L351.656 486.844C350.764 485.458 352.089 486.885 350.836 485.648C350.444 485.262 350.209 485.02 349.904 484.541C349.445 483.82 349.756 484.215 349.188 483.521L347.83 481.878L348.277 481.421Z"/>
	<path fill="#2E9D91" transform="scale(0.666667 0.666667)" d="M419.731 480.735L419.946 481.486L416.717 485.625L416.845 485.942C417.016 486.398 417.102 486.836 417.191 487.312L417.75 486.941C418.589 486.941 418.515 486.77 419.156 487.406L419.531 487.127L419.906 487.406L420.188 486.941L420.75 487.316C421.643 487.316 421.857 487.179 422.625 487.691L423.158 487.625C423.926 487.563 424.337 487.73 425.062 487.875L425.719 487.969C426.511 488.127 426.778 488.548 427.641 488.264C427.972 488.154 428.311 488.069 428.649 487.983C429.147 487.858 429.332 487.598 429.75 487.317L432.007 486.067C428.7 489.521 425.353 492.958 422.353 496.688C417.643 502.542 413.731 508.961 409.911 515.41C408.068 518.523 406.01 521.647 404.474 524.919C397.931 534.368 395.523 543.702 392.637 554.585C392.038 551.976 392.382 549.131 392.582 546.477C393.501 534.312 396.452 521.51 401.24 510.27C404.075 503.614 407.836 497.37 411.767 491.314C414.003 487.869 416.658 483.385 419.731 480.735Z"/>
	<path fill="#2E9D91" transform="scale(0.666667 0.666667)" d="M252.521 441.148C251.924 440.396 251.249 439.944 250.312 439.691C249.793 439.551 249.308 439.488 248.787 439.314L247.688 438.941C247.024 438.762 246.283 438.517 245.623 438.377C244.381 438.114 245.303 438.449 244.499 438.148L244.123 438.002L243.375 437.816C242.553 437.395 242.068 437.592 241.123 437.252L239.625 436.691L239.434 436.125L239.059 435.562L239.809 434.812L239.625 434.062L240.184 433.688L240.092 432.75C240.891 431.418 239.813 430.938 239.809 429.375C240.342 428.575 240.184 428.058 240.184 427.125C239.655 426.329 239.811 425.803 239.809 424.875C239.204 424.264 239.436 423.828 239.434 423C238.727 421.936 239.06 419.808 239.059 418.5C239.69 417.553 239.177 417.01 239.809 416.062L241.125 416.434C241.982 416.828 241.679 416.81 242.625 416.717C243.266 417.249 243.34 417.267 244.127 417.373C244.919 417.479 244.688 417.387 245.263 417.602L245.627 417.748L246.188 417.934L246.562 418.309L249.44 418.227C259.035 420.86 268.721 424.905 277.707 429.155C281.108 430.763 284.819 432.328 287.947 434.415L287.406 434.408C286.13 434.374 284.976 433.713 283.877 433.123L282.938 432.375L282.377 432.373L281.25 431.717L280.881 431.581C279.774 431.163 281.467 431.822 279.938 431.059L279.377 430.873L278.719 430.498L278.326 430.375C277.578 430.126 276.735 429.694 276.002 429.373L275.062 428.809L274.502 428.623L273.844 428.248L273.184 428.062C272.827 428.598 272.662 428.973 272.434 429.562C272.196 430.176 272.319 429.914 271.967 430.5C272.023 431.911 272.468 435.798 271.686 436.781L272.059 437.25C272.059 437.974 272.223 438.023 271.684 438.562C271.687 439.405 271.572 439.517 272.059 440.25C272.059 441.199 272.146 441.294 271.684 442.125C271.048 443.266 270.915 444.602 270.842 445.875C271.218 446.627 271.464 446.68 272.248 447.002L280.334 450.189C280.937 450.39 281.429 450.675 282 450.941L283.498 451.502L285.238 453.253L252.521 441.148Z"/>
	<path fill="#69E1D5" transform="scale(0.666667 0.666667)" d="M285.238 453.253L283.498 451.502L282 450.941C281.429 450.675 280.937 450.39 280.334 450.189L272.248 447.002C271.464 446.68 271.218 446.627 270.842 445.875C270.915 444.602 271.048 443.266 271.684 442.125C272.146 441.294 272.059 441.199 272.059 440.25C271.572 439.517 271.687 439.405 271.684 438.562C272.223 438.023 272.059 437.974 272.059 437.25L271.686 436.781C272.468 435.798 272.023 431.911 271.967 430.5C272.319 429.914 272.196 430.176 272.434 429.562C272.662 428.973 272.827 428.598 273.184 428.062L273.844 428.248L274.502 428.623L275.062 428.809L276.002 429.373C276.735 429.694 277.578 430.126 278.326 430.375L278.719 430.498L279.377 430.873L279.938 431.059C281.467 431.822 279.774 431.163 280.881 431.581L281.25 431.717L282.377 432.373L282.938 432.375L283.877 433.123C284.976 433.713 286.13 434.374 287.406 434.408L287.947 434.415C307.163 443.239 324.279 455.846 339.075 470.857C342.172 474 346.015 477.645 348.277 481.421L347.83 481.878L349.188 483.521C349.756 484.215 349.445 483.82 349.904 484.541C350.209 485.02 350.444 485.262 350.836 485.648C352.089 486.885 350.764 485.458 351.656 486.844L352.5 487.688L352.502 488.156L352.823 488.514C353.556 489.34 354.154 490.135 354.75 491.062L355.482 492.146L356.531 493.969L357.283 495.375L357.844 496.102C358.156 496.518 358.177 496.833 358.408 497.25L358.688 497.625L359.625 499.125L361.125 501.75C361.761 502.764 361.804 503.872 362.533 504.75L362.627 505.406L363.375 506.25C363.163 507.559 361.989 508.314 362.156 509.531L361.312 509.441L360.941 509.812L361.406 510.281L360.566 510.562L360.562 511.125C359.369 511.726 358.554 511.048 357.75 512.625C356.617 511.492 355.982 509.853 355.125 508.5L354.855 508.045L354 506.812L350.625 501.938L350.623 501.377L350.296 501.071C349.808 500.58 349.505 500.072 349.125 499.5L348 498L346.793 496.303C346.448 495.841 346.027 495.503 345.629 495.096C345.143 494.6 345.563 494.995 345.094 494.156L344.549 493.56C344.201 493.201 343.97 492.926 343.693 492.508C343.282 491.891 342.759 491.491 342.2 491.009L341.806 491.357C341.498 491.215 341.662 491.319 341.331 490.951C325.85 473.716 306.369 462.262 285.238 453.253Z"/>
	<defs>
		<linearGradient id="gradient_2" gradientUnits="userSpaceOnUse" x1="151.312" y1="420.56201" x2="239.55" y2="416.73599">
			<stop offset="0" stop-color="#16746A"/>
			<stop offset="1" stop-color="#32ACA1"/>
		</linearGradient>
	</defs>
	<path fill="url(#gradient_2)" transform="scale(0.666667 0.666667)" d="M252.521 441.148L150.397 421.733L150.489 397.766C176.024 401.379 201.906 405.619 226.926 411.871C234.412 413.742 242.195 415.575 249.44 418.227L246.562 418.309L246.188 417.934L245.627 417.748L245.263 417.602C244.688 417.387 244.919 417.479 244.127 417.373C243.34 417.267 243.266 417.249 242.625 416.717C241.679 416.81 241.982 416.828 241.125 416.434L239.809 416.062C239.177 417.01 239.69 417.553 239.059 418.5C239.06 419.808 238.727 421.936 239.434 423C239.436 423.828 239.204 424.264 239.809 424.875C239.811 425.803 239.655 426.329 240.184 427.125C240.184 428.058 240.342 428.575 239.809 429.375C239.813 430.938 240.891 431.418 240.092 432.75L240.184 433.688L239.625 434.062L239.809 434.812L239.059 435.562L239.434 436.125L239.625 436.691L241.123 437.252C242.068 437.592 242.553 437.395 243.375 437.816L244.123 438.002L244.499 438.148C245.303 438.449 244.381 438.114 245.623 438.377C246.283 438.517 247.024 438.762 247.688 438.941L248.787 439.314C249.308 439.488 249.793 439.551 250.312 439.691C251.249 439.944 251.924 440.396 252.521 441.148Z"/>
	<path fill="#0B6A5B" transform="scale(0.666667 0.666667)" d="M150.158 425.812C151.623 425.425 153.967 426.009 155.489 426.208C159.205 426.694 162.897 427.182 166.605 427.727C191.489 431.386 215.857 436.145 240.112 442.845C252.691 446.319 265.33 450.091 277.376 455.149C304.997 466.745 331.394 482.8 349.376 507.282C352.022 510.884 355.368 515.064 357.051 519.188C355.484 519.126 342.939 508.633 340.814 507.09C334.021 502.155 326.98 497.992 319.734 493.791C313.256 490.035 306.751 486.225 300.084 482.812C282.933 474.034 265.417 466.158 247.161 459.93C235.835 456.066 224.319 453.087 212.719 450.192C200.305 447.093 187.945 444.162 175.37 441.786C166.997 440.204 158.444 438.023 149.992 437.088L150.158 425.812Z"/>
	<defs>
		<linearGradient id="gradient_3" gradientUnits="userSpaceOnUse" x1="417.18799" y1="512.81201" x2="421.39499" y2="418.59201">
			<stop offset="0" stop-color="#297B75"/>
			<stop offset="1" stop-color="#49C0B8"/>
		</linearGradient>
	</defs>
	<path fill="url(#gradient_3)" transform="scale(0.666667 0.666667)" d="M432.007 486.067C432.131 486.086 432.209 485.916 432.304 485.833C433.996 484.335 435.696 482.846 437.42 481.384C448.377 472.088 460.48 464.811 473.325 458.466C505.367 442.638 541.564 434.661 576.505 428.229C590.054 425.735 603.924 423.208 617.669 422.196L617.902 400.487L617.937 400.093C619.138 407.742 617.144 415.96 618.559 423.562C618.823 424.98 618.182 425.917 618.155 427.159C618.108 429.364 618.894 435.286 617.735 436.936C617.511 437.244 617.37 437.635 617.062 437.859C616.45 438.305 608.042 439.409 606.588 439.677C594.996 441.816 583.327 444.031 571.815 446.564C545.506 452.352 519.168 460.387 494.165 470.389C485.095 474.017 476.107 477.633 467.398 482.081C452.984 489.442 439.702 497.994 426.333 507.06C421.225 511.038 415.575 514.263 411.153 519.073C409.452 521.242 407.083 523.951 404.474 524.919C406.01 521.647 408.068 518.523 409.911 515.41C413.731 508.961 417.643 502.542 422.353 496.688C425.353 492.958 428.7 489.521 432.007 486.067Z"/>
	<path fill="#0B6A5B" transform="scale(0.666667 0.666667)" d="M424.016 500.253C422.739 502.794 421.298 504.661 419.623 506.906L419.201 507.317C417.815 508.703 416.928 510.544 415.688 512.066L416.062 512.625L416.812 512.441L417.191 512.812L419.344 511.127C421.621 509.487 423.617 507.899 426.333 507.06C421.225 511.038 415.575 514.263 411.153 519.073L410.327 518.812C410.998 516.862 412.771 514.846 413.974 513.166C417.093 508.81 420.251 504.077 424.016 500.253Z"/>
	<path fill="#213C3F" transform="scale(0.666667 0.666667)" d="M432.007 486.067C432.131 486.086 432.209 485.916 432.304 485.833C433.996 484.335 435.696 482.846 437.42 481.384C448.377 472.088 460.48 464.811 473.325 458.466C505.367 442.638 541.564 434.661 576.505 428.229C590.054 425.735 603.924 423.208 617.669 422.196L617.902 400.487L617.937 400.093C619.138 407.742 617.144 415.96 618.559 423.562C618.823 424.98 618.182 425.917 618.155 427.159C618.108 429.364 618.894 435.286 617.735 436.936L617.703 426.342C593.091 429.451 568.68 433.92 544.57 439.734C528.883 443.517 512.828 447.648 497.662 453.189C489.314 456.238 481.302 459.915 473.306 463.774C454.572 472.814 437.403 484.109 424.016 500.253C420.251 504.077 417.093 508.81 413.974 513.166C412.771 514.846 410.998 516.862 410.327 518.812L411.153 519.073C409.452 521.242 407.083 523.951 404.474 524.919C406.01 521.647 408.068 518.523 409.911 515.41C413.731 508.961 417.643 502.542 422.353 496.688C425.353 492.958 428.7 489.521 432.007 486.067Z"/>
	<defs>
		<linearGradient id="gradient_4" gradientUnits="userSpaceOnUse" x1="426.93799" y1="488.43799" x2="418.58801" y2="426.69601">
			<stop offset="0" stop-color="#3CADA6"/>
			<stop offset="1" stop-color="#53E2D5"/>
		</linearGradient>
	</defs>
	<path fill="url(#gradient_4)" transform="scale(0.666667 0.666667)" d="M419.731 480.735L420.791 479.355C441.908 454.251 472.054 436.207 502.624 424.981C513.779 420.884 525.172 417.801 536.653 414.799C550.704 411.124 564.695 407.886 579.003 405.362C591.647 403.131 604.463 400.475 617.25 399.38L617.937 400.093L617.902 400.487L617.669 422.196C603.924 423.208 590.054 425.735 576.505 428.229C541.564 434.661 505.367 442.638 473.325 458.466C460.48 464.811 448.377 472.088 437.42 481.384C435.696 482.846 433.996 484.335 432.304 485.833C432.209 485.916 432.131 486.086 432.007 486.067L429.75 487.317C429.332 487.598 429.147 487.858 428.649 487.983C428.311 488.069 427.972 488.154 427.641 488.264C426.778 488.548 426.511 488.127 425.719 487.969L425.062 487.875C424.337 487.73 423.926 487.563 423.158 487.625L422.625 487.691C421.857 487.179 421.643 487.316 420.75 487.316L420.188 486.941L419.906 487.406L419.531 487.127L419.156 487.406C418.515 486.77 418.589 486.941 417.75 486.941L417.191 487.312C417.102 486.836 417.016 486.398 416.845 485.942L416.717 485.625L419.946 481.486L419.731 480.735Z"/>
	<defs>
		<linearGradient id="gradient_5" gradientUnits="userSpaceOnUse" x1="150.562" y1="465.93799" x2="208.16499" y2="403.009">
			<stop offset="0" stop-color="#D2D7D0"/>
			<stop offset="1" stop-color="white"/>
		</linearGradient>
	</defs>
	<path fill="url(#gradient_5)" transform="scale(0.666667 0.666667)" d="M155.307 468.273L149.89 466.622L149.614 458.333C164.063 462.443 178.698 465.873 193.125 470.085C237.883 483.154 281.498 499.506 321.717 523.348C329.059 527.7 336.315 531.868 343.253 536.866C335.919 528.111 325.137 521.656 315.375 515.959C279.415 494.973 239.745 480.263 199.969 468.295C183.556 463.357 166.96 459.11 150.344 454.921C150.041 454.845 149.639 454.928 149.434 454.692C149.231 454.459 149.616 446.993 149.639 446.017C173.406 452.295 197.37 457.71 220.854 465.047C253.856 475.359 285.997 488.546 315.703 506.302C332.028 516.061 350.036 528.189 359.734 544.975C362.631 549.989 365.497 555.795 367.271 561.314C367.048 561.376 366.833 561.521 366.602 561.5C366.309 561.474 364.406 559.936 363.984 559.652C361.74 558.144 359.37 556.828 357.023 555.488C341.218 546.463 325.972 536.508 309.898 527.978C276.246 510.12 241.409 495.601 205.263 483.585C188.718 478.086 171.974 473.365 155.307 468.273Z"/>
	<path fill="#FAFCFC" transform="scale(0.666667 0.666667)" d="M589.033 453.622L588.225 453.184L588.723 453.063C589.658 452.824 588.99 453.015 589.658 452.764C590.561 452.424 591.454 452.509 592.359 452.098C593.12 451.752 593.836 451.791 594.656 451.781C595.108 451.461 595.141 451.365 595.691 451.312C596.808 451.206 598.347 450.956 599.25 450.283L599.86 450.3C600.617 450.299 600.671 450.2 601.312 450L602.25 449.812L603.75 449.533C604.314 449.412 604.73 449.133 605.252 448.969L606.312 448.886C607.253 448.826 607.446 448.586 608.25 448.316L609.562 448.125C610.798 447.951 612.068 447.525 613.314 447.281C613.792 447.188 614.182 446.878 614.627 446.719L615.941 446.438C616.638 446.292 617.156 446.156 617.812 445.875C618.447 446.114 618.47 446.005 618.842 446.625L618.801 446.976C618.673 448.282 618.711 449.294 618.375 450.562C617.919 452.286 618.405 455.141 618.559 456.938L618.562 458.25L618.934 458.625C618.784 459.227 618.837 459.283 618.375 459.75L618.292 462.537L618.043 462.646L617.987 467.694C590.136 476.703 562.018 484.533 534.504 494.608C499.055 507.588 464.943 524.32 432.482 543.504C426.12 547.265 419.743 550.994 413.399 554.786C408.964 557.437 404.467 559.955 400.452 563.228C402.266 557.409 404.383 551.722 407.518 546.469C412.988 537.303 420.346 529.467 428.342 522.467C450.534 503.036 477.141 491.265 504.278 480.507C531.825 469.587 560.262 460.736 589.033 453.622Z"/>
	<path fill="#213C3F" transform="scale(0.666667 0.666667)" d="M589.033 453.622L588.225 453.184L588.723 453.063C589.658 452.824 588.99 453.015 589.658 452.764C590.561 452.424 591.454 452.509 592.359 452.098C593.12 451.752 593.836 451.791 594.656 451.781C595.108 451.461 595.141 451.365 595.691 451.312C596.808 451.206 598.347 450.956 599.25 450.283L599.86 450.3C600.617 450.299 600.671 450.2 601.312 450L602.25 449.812L603.75 449.533C604.314 449.412 604.73 449.133 605.252 448.969L606.312 448.886C607.253 448.826 607.446 448.586 608.25 448.316L609.562 448.125C610.798 447.951 612.068 447.525 613.314 447.281C613.792 447.188 614.182 446.878 614.627 446.719L615.941 446.438C616.638 446.292 617.156 446.156 617.812 445.875C618.447 446.114 618.47 446.005 618.842 446.625L618.801 446.976C618.673 448.282 618.711 449.294 618.375 450.562C617.919 452.286 618.405 455.141 618.559 456.938L618.562 458.25L618.934 458.625C618.784 459.227 618.837 459.283 618.375 459.75L618.292 462.537L618.043 462.646L617.948 459.75L617.438 459.295C609.497 461.575 601.396 463.388 593.405 465.497C580.868 468.805 568.335 472.438 555.938 476.238C509.927 490.341 465.892 509.756 425.625 536.199L425.144 536.062C432.306 530.249 439.084 524.413 446.934 519.48C462.847 509.48 479.697 501.551 496.961 494.208C510.023 488.652 523.077 483.254 536.487 478.577C548.118 474.521 559.987 471.092 571.797 467.597C587.008 463.096 602.369 458.544 617.961 455.561L618.008 446.805C617.606 446.591 617.859 446.656 617.228 446.837C607.99 449.486 598.42 451.519 589.033 453.622Z"/>
	<defs>
		<linearGradient id="gradient_6" gradientUnits="userSpaceOnUse" x1="183.938" y1="200.812" x2="462.07999" y2="524.32898">
			<stop offset="0" stop-color="#D1D2CA"/>
			<stop offset="1" stop-color="white"/>
		</linearGradient>
	</defs>
	<path fill="url(#gradient_6)" transform="scale(0.666667 0.666667)" d="M198.293 198.733C206.976 199.259 215.736 198.966 224.43 198.841C236.01 198.674 247.718 198.7 259.18 196.851C268.389 195.366 277.639 192.647 286.557 189.938C311.834 182.258 336.287 172.329 358.419 157.777C363.354 154.532 368.357 151.215 372.787 147.291C377.045 143.52 380.272 139.46 383.431 134.765C389.662 146.155 400.402 153.943 411.121 160.825C434.816 176.037 461.155 186.278 488.094 194.121C508.343 200.016 528.858 199.503 549.744 199.407C556.316 199.377 563.603 199.86 570.089 198.915L588.835 199.443C588.733 206.016 588.184 212.521 587.894 219.082C587.762 222.062 587.437 225.029 587.614 228.014C587.582 248.011 587.569 268.01 587.439 288.006C587.386 296.091 587.279 304.175 587.274 312.26C587.27 319.716 587.109 327.278 588.917 334.565C591.316 344.232 596.544 352.989 603.574 360.019C609.329 365.776 616.395 370.297 623.719 373.789C627.393 375.541 631.212 376.928 634.912 378.616C628.55 379.268 622.155 379.51 615.78 380.027C603.027 381.061 590.347 382.342 577.688 384.225C538.44 390.062 499.509 401.232 464.376 419.916C445.26 430.081 427.985 441.758 414.177 458.723C403.994 471.234 396.081 485.475 391.466 500.955C388.176 511.99 386.175 524.023 385.184 535.51C384.928 538.474 384.702 541.442 384.446 544.406C384.349 545.531 384.439 546.946 383.755 547.872C383.051 544.977 383.263 541.825 383.028 538.847C382.411 531.022 381.911 522.979 380.515 515.25C375.478 487.36 361.449 462.386 340.189 443.659C332.756 437.111 324.408 431.551 315.967 426.394C274.364 400.976 226.579 386.981 178.367 381.557C168.719 380.472 159.081 379.712 149.39 379.12C143.941 378.787 138.116 378.927 132.753 377.923C135.394 377.007 138.162 376.189 140.701 375.017C155.483 368.19 167.658 356.48 174.783 341.812C177.171 336.897 178.714 331.531 179.375 326.109C180.155 319.714 179.873 312.988 179.852 306.545C179.822 297.065 179.768 287.585 179.738 278.105C179.703 267.372 179.772 256.64 179.908 245.908C179.979 240.25 180.302 234.51 180.136 228.862C180.448 227.942 180.739 227.004 181.17 226.132C182.649 223.145 181.967 219.949 181.947 216.705C181.923 212.989 181.937 209.273 182.114 205.561C182.181 204.158 182.067 202.195 182.878 200.993C184.378 198.772 188.303 199.545 190.634 199.521C193.069 199.496 195.406 199.485 197.777 198.871L198.293 198.733Z"/>
	<path fill="#050A0C" transform="scale(0.666667 0.666667)" d="M500.059 218.2C502.009 218.19 504.07 218.021 505.975 218.473L495.703 221.469C495.626 220.439 495.693 219.463 495.773 218.438L500.059 218.2Z"/>
	<path fill="#CEB575" transform="scale(0.666667 0.666667)" d="M570.476 347.403C571.763 347.297 572.888 347.275 574.165 347.495C574.675 347.583 574.664 347.786 574.953 348.188C573.931 349.487 557.166 352.055 553.945 352.733C538.161 356.057 522.689 360.797 507.606 366.497C460.359 384.352 413.621 416.534 392.284 463.807C391.669 464.909 391.166 466.642 390.188 467.39C390.112 465.053 392.018 461.462 392.997 459.331C398.191 448.021 404.641 436.895 412.589 427.285C423.723 413.823 437.702 401.926 452.114 392.107C479.851 373.21 509.93 359.803 542.686 352.317C551.924 350.206 561.027 348.328 570.476 347.403Z"/>
	<defs>
		<linearGradient id="gradient_7" gradientUnits="userSpaceOnUse" x1="192.562" y1="348.56201" x2="356.87299" y2="326.827">
			<stop offset="0" stop-color="#A08A49"/>
			<stop offset="1" stop-color="#D8BF80"/>
		</linearGradient>
	</defs>
	<path fill="url(#gradient_7)" transform="scale(0.666667 0.666667)" d="M192.067 347.438C193.658 346.994 195.413 347.306 197.038 347.45C200.261 347.736 203.435 348.189 206.625 348.729C235.183 353.568 263.113 362.435 289.105 375.251C303.956 382.574 317.821 391.545 330.786 401.827C351.254 418.06 369.194 437.491 378.018 462.562C378.501 463.935 378.666 464.81 378.562 466.278C359.806 420.27 315.959 389.567 271.621 371.101C256.736 364.902 241.416 359.585 225.75 355.719C217.58 353.703 209.484 351.92 201.16 350.662C199.104 350.351 197.064 350.065 194.989 349.908C193.954 349.83 192.552 349.967 191.703 349.312L192.067 347.438Z"/>
	<defs>
		<linearGradient id="gradient_8" gradientUnits="userSpaceOnUse" x1="373.68799" y1="372.56201" x2="365.595" y2="432.99899">
			<stop offset="0" stop-color="#9A9257"/>
			<stop offset="1" stop-color="#FCD589"/>
		</linearGradient>
	</defs>
	<path fill="url(#gradient_8)" transform="scale(0.666667 0.666667)" d="M378.24 364.508L383.689 443.185C381.286 437.359 379.997 430.972 377.896 424.998C374.24 414.604 369.954 404.49 366.552 393.991C365.534 390.849 364.638 387.661 363.832 384.459C363.591 383.502 363.266 381.095 362.766 380.371C362.623 377.161 361.411 373.604 360.696 370.471L361.837 369.974C363.594 368.699 365.72 366.855 367.851 366.199L368.248 366.102C369.12 365.81 369.772 365.829 370.688 365.816L370.781 366.656L368.344 366.844L370.125 366.941L370.5 367.5C371.295 367.77 371.773 366.941 372.938 366.941C373.489 366.389 373.136 366.566 374.062 366.566L374.25 367.312L375.375 367.316L375.75 367.875C376.567 368.153 377.007 367.958 377.812 367.691L377.814 366.844L377.066 366.562L377.066 365.812L376.691 365.438L378.24 364.508Z"/>
	<path fill="#CEB575" transform="scale(0.666667 0.666667)" d="M580.403 368.03C589.101 366.783 597.671 370.591 605.586 373.682C603.745 374.233 601.61 374.241 599.695 374.378C596.44 374.611 593.178 374.814 589.929 375.121C582.894 375.786 575.844 376.85 568.875 378.014C532.3 384.119 497.565 394.993 464.512 411.885L446.055 422.276C451.499 416.157 458.391 411.394 465.187 406.92C474.69 400.665 484.521 395.629 494.866 390.926C521.563 378.792 551.175 370.817 580.403 368.03Z"/>
	<path fill="#A28844" transform="scale(0.666667 0.666667)" d="M181.703 368.008C185.273 367.325 190.215 367.951 193.875 368.304C201.33 369.022 208.665 370.511 216 371.971C250.207 378.783 284.522 391.436 312.84 412.156C318.147 416.039 323.511 419.698 327.75 424.788L316.2 418.539C312.128 416.072 307.743 414.024 303.545 411.784C259.793 388.438 212.277 377.299 163.038 373.875C169.1 370.972 175.007 368.78 181.703 368.008Z"/>
	<path fill="#A28844" transform="scale(0.666667 0.666667)" d="M478.21 242.5C483.557 239.804 490.839 236.753 496.8 235.954L496.8 236.686L496.125 236.717C495.679 236.779 495.209 236.989 494.809 237.188L494.998 237.752L495.75 237.938L495.938 237.191C496.419 237.916 496.237 237.538 496.5 238.316C497.68 238.619 498.117 238.79 499.312 238.316L499.875 238.691L501.75 239.821L502.468 240.097C503.088 240.323 503.609 240.585 504.17 240.938L503.652 241.014C502.468 241.214 503.649 240.983 502.498 241.406L501.561 241.594L501.562 244.875C502.437 244.583 501.837 244.849 502.5 244.408C503.427 243.792 502.462 244.421 503.625 244.033L504.094 243.752L504.75 243.562L505.149 243.317L506.356 243.542C503.068 244.945 499.825 246.358 496.647 248.004C495.031 248.841 493.163 250.283 491.481 250.834L474.585 263.195C469.241 267.662 464.088 272.319 459.131 277.213C458.814 277.525 455.765 280.651 455.654 280.651C454.367 280.833 451.793 283.304 451.125 284.438L450.844 285.094L448.691 287.062L448.688 287.625L448.295 287.954C447.816 288.381 447.723 288.629 447.375 289.125C446.976 289.695 446.658 290.079 446.066 290.438L446.062 291L445.611 291.428C444.869 292.17 445.31 291.661 444.844 292.594C444.484 293.313 443.738 294.156 443.066 294.562L443.062 295.125L441.941 296.062L441.938 296.625L440.982 297.85C440.373 298.612 440.832 297.998 440.344 298.969C440.003 299.645 439.478 300.175 438.752 300.377L437.333 300.636C436.782 300.745 436.539 300.964 436.125 301.316C435.519 301.074 435.353 300.811 434.719 301.127C434.416 301.277 434.182 301.548 433.875 301.688L433.219 301.877L432.75 302.158L432.002 302.252C431.407 302.406 430.801 302.882 430.301 303.215C429.641 303.655 429.461 303.505 428.812 303.75L427.875 304.312L427.5 304.312L427.125 304.688L426.562 304.691L426.002 304.877L425.556 304.96C424.866 305.099 425.248 305.004 424.594 305.266C424.06 305.479 423.75 305.473 423.188 305.441L422.625 305.816L421.877 306.002L421.219 306.656L420.938 306.191L420.658 306.75L420.469 307.031L420.188 306.566L419.344 307.406L418.969 307.127C417.779 307.639 416.67 308.565 415.5 309.188L414.938 309.566L414.482 309.647C413.815 309.78 413.793 310 413.25 310.316L412.125 310.783L411.562 311.051C410.911 311.322 410.548 311.261 409.875 311.158L409.316 311.437C409.308 310.65 409.253 311.495 409.649 310.474C409.765 310.176 409.689 309.225 409.688 308.957L409.747 308.656C411.55 303.926 414.925 298.954 417.653 294.715C432.415 271.77 453.104 253.361 478.21 242.5Z"/>
	<path fill="#577554" transform="scale(0.666667 0.666667)" d="M478.21 242.5C483.557 239.804 490.839 236.753 496.8 235.954L496.8 236.686L496.125 236.717C495.679 236.779 495.209 236.989 494.809 237.188L494.998 237.752L495.75 237.938L495.938 237.191C496.419 237.916 496.237 237.538 496.5 238.316C497.68 238.619 498.117 238.79 499.312 238.316L499.875 238.691L501.75 239.821L502.468 240.097C503.088 240.323 503.609 240.585 504.17 240.938L503.652 241.014C502.468 241.214 503.649 240.983 502.498 241.406L501.561 241.594L501.562 244.875C502.437 244.583 501.837 244.849 502.5 244.408C503.427 243.792 502.462 244.421 503.625 244.033L504.094 243.752L504.75 243.562L505.149 243.317L506.356 243.542C503.068 244.945 499.825 246.358 496.647 248.004C495.031 248.841 493.163 250.283 491.481 250.834L491.804 249.941L492.188 249.703C493.292 248.939 494.378 248.306 495.566 247.67C495.566 245.986 496.033 241.826 495.191 240.562L494.062 240.559C493.498 241.123 493.328 240.934 492.562 240.934C491.952 241.545 491.52 241.309 490.688 241.309L490.312 241.684L489.188 241.684C488.623 242.248 488.453 242.059 487.688 242.059L487.688 241.5L488.25 241.125L488.062 240.934C487.663 240.454 487.509 240.098 486.938 239.809L485.812 240.184C484.87 240.81 484.497 240.374 483.562 241.309C483.059 241.395 482.655 241.476 482.184 241.686L481.781 241.873L481.125 242.059L480.562 242.434C479.667 242.919 479.091 242.901 478.21 242.5Z"/>
	<path fill="#0B6A5B" transform="scale(0.666667 0.666667)" d="M334.315 308.256L335.189 308.325L335.059 307.875L334.498 307.219C334.054 306.283 333.438 306.06 333.184 305.062L332.248 304.219C331.957 303.819 331.871 303.413 331.498 303.002L330.75 302.25C330.11 301.362 329.743 300.583 328.944 299.783L328.498 299.344L328.309 298.688C327.174 297.889 326.819 296.804 325.815 295.928L325.312 295.5C325.306 294.599 323.903 293.633 323.248 292.969C322.927 291.856 321.629 291.094 320.812 290.25C320.805 289.169 318.759 288.015 318.184 286.875L318.75 286.309C319.539 285.699 320.067 285.101 320.719 284.344L321.188 284.809L321.75 284.25L322.312 284.809L323.25 283.875C323.667 283.483 323.793 283.417 323.968 282.838L324.092 282.375L324.748 281.248L324.75 280.688L325.498 280.031C326.175 279.052 327.597 278.005 328.026 276.941L328.125 276.562L328.688 276.559L329.25 275.438L329.998 275.248L330 274.688C330.708 273.906 331.191 273.62 332.256 273.578L333 273.559C333.402 272.96 333.255 273.109 333.678 272.684L333.934 272.438L333.375 271.688C334.818 272.508 336.069 274.11 337.312 275.25C337.319 276.191 338.849 277.358 339.562 278.059C340.293 278.776 340.765 279.734 341.535 280.358C342.652 281.261 343.037 282.394 344.174 283.296L344.438 283.5C344.443 284.319 344.635 284.256 345.188 284.809C345.194 285.452 345.864 285.86 346.312 286.309L346.316 286.688L347.25 287.438C347.34 287.704 347.473 288.149 347.627 288.373C348.434 289.552 349.264 290.868 350.177 291.993L350.438 292.309C350.444 292.922 350.77 293.016 351.188 293.434C351.193 294.021 351.546 294.316 351.941 294.75L352.688 295.5L352.871 296.106L353.067 295.089C355.246 297.758 356.967 300.99 358.671 303.979C366.022 316.876 371.241 331.209 374.594 345.634C376.05 351.893 376.817 358.285 378.24 364.508L376.691 365.438L377.066 365.812L377.066 366.562L377.814 366.844L377.812 367.691C377.007 367.958 376.567 368.153 375.75 367.875L375.375 367.316L374.25 367.312L374.062 366.566C373.136 366.566 373.489 366.389 372.938 366.941C371.773 366.941 371.295 367.77 370.5 367.5L370.125 366.941L368.344 366.844L370.781 366.656L370.688 365.816C369.772 365.829 369.12 365.81 368.248 366.102L367.851 366.199C365.72 366.855 363.594 368.699 361.837 369.974L360.696 370.471C359.625 364.946 357.763 359.318 356.008 353.966C352.613 343.609 348.653 333.413 343.543 323.769C340.714 318.43 337.401 313.439 334.315 308.256Z"/>
	<defs>
		<linearGradient id="gradient_9" gradientUnits="userSpaceOnUse" x1="409.68799" y1="311.43799" x2="455.72101" y2="405.35199">
			<stop offset="0" stop-color="#A78841"/>
			<stop offset="1" stop-color="#EFD693"/>
		</linearGradient>
	</defs>
	<path fill="url(#gradient_9)" transform="scale(0.666667 0.666667)" d="M409.688 308.957C409.689 309.225 409.765 310.176 409.649 310.474C409.253 311.495 409.308 310.65 409.316 311.437L409.875 311.158C410.548 311.261 410.911 311.322 411.562 311.051L412.125 310.783L413.25 310.316C413.793 310 413.815 309.78 414.482 309.647L414.938 309.566L415.5 309.188C416.67 308.565 417.779 307.639 418.969 307.127L419.344 307.406L420.188 306.566L420.469 307.031L420.658 306.75L420.938 306.191L421.219 306.656L421.877 306.002L422.625 305.816L423.188 305.441C423.75 305.473 424.06 305.479 424.594 305.266C425.248 305.004 424.866 305.099 425.556 304.96L426.002 304.877L426.562 304.691L427.125 304.688L427.5 304.312L427.875 304.312L428.812 303.75C429.461 303.505 429.641 303.655 430.301 303.215C430.801 302.882 431.407 302.406 432.002 302.252L432.75 302.158L433.219 301.877L433.875 301.688C434.182 301.548 434.416 301.277 434.719 301.127C435.353 300.811 435.519 301.074 436.125 301.316C436.539 300.964 436.782 300.745 437.333 300.636L438.752 300.377C439.478 300.175 440.003 299.645 440.344 298.969C440.832 297.998 440.373 298.612 440.982 297.85L441.938 296.625L441.941 296.062L443.062 295.125L443.066 294.562C443.738 294.156 444.484 293.313 444.844 292.594C445.31 291.661 444.869 292.17 445.611 291.428L446.062 291L446.066 290.438C446.658 290.079 446.976 289.695 447.375 289.125C447.723 288.629 447.816 288.381 448.295 287.954L448.688 287.625L448.691 287.062L450.844 285.094L451.125 284.438C451.793 283.304 454.367 280.833 455.654 280.651C448.68 288.5 442.37 296.392 437.106 305.522C436.091 307.284 434.43 309.527 434.198 311.559C433.699 313.522 432.502 315.189 431.594 316.981C430.051 320.028 428.559 323.144 427.073 326.222C423.797 333.008 421.163 340.145 418.53 347.199C417.324 350.43 415.853 353.632 414.934 356.957L415.296 357.379C414.99 358.421 414.397 359.327 414.188 360.375L414 361.312C414.645 361.665 414.841 361.877 415.594 361.877L415.969 362.156C416.736 362.047 416.441 362.184 416.906 361.877L417.375 362.25L418.312 362.066L418.781 362.531L419.062 362.066L420.188 363.375L421.316 363.187L421.502 362.627L421.948 362.368C422.56 362.001 422.332 362.172 422.812 361.691L423.281 362.156L423.519 361.869C423.93 361.41 423.781 361.569 424.418 361.213C421.592 367.308 418.874 373.33 416.743 379.716C415.461 383.558 414.74 388.722 412.9 392.213L412.549 390.094L412.713 389.737C412.914 389.278 412.878 389.471 412.875 389.059L411.75 389.062L412.031 389.719L411.75 389.962L410.812 389.517L410.496 389.772C408.988 390.971 407.793 391.568 405.938 392.059L405.188 391.309C404.363 391.585 404.238 391.954 403.815 392.69C403.45 393.327 403.012 393.832 402.543 394.394C397.602 405.423 393.428 417.455 390.044 429.05C389.074 432.374 386.675 444.268 384.562 446.395C384.212 445.7 384.057 444.968 384.253 444.188C385.892 437.648 386.212 431.086 386.564 424.31C386.967 416.576 387.241 408.843 387.524 401.104C387.953 389.391 389.413 377.732 391.413 366.188C394.924 345.926 399.931 327.189 409.688 308.957Z"/>
	<defs>
		<linearGradient id="gradient_10" gradientUnits="userSpaceOnUse" x1="422.81201" y1="362.06201" x2="413.19601" y2="392.81">
			<stop offset="0" stop-color="#D6BC71"/>
			<stop offset="1" stop-color="#F4EDC7"/>
		</linearGradient>
	</defs>
	<path fill="url(#gradient_10)" transform="scale(0.666667 0.666667)" d="M414.934 356.957L415.296 357.379C414.99 358.421 414.397 359.327 414.188 360.375L414 361.312C414.645 361.665 414.841 361.877 415.594 361.877L415.969 362.156C416.736 362.047 416.441 362.184 416.906 361.877L417.375 362.25L418.312 362.066L418.781 362.531L419.062 362.066L420.188 363.375L421.316 363.187L421.502 362.627L421.948 362.368C422.56 362.001 422.332 362.172 422.812 361.691L423.281 362.156L423.519 361.869C423.93 361.41 423.781 361.569 424.418 361.213C421.592 367.308 418.874 373.33 416.743 379.716C415.461 383.558 414.74 388.722 412.9 392.213L412.549 390.094L412.713 389.737C412.914 389.278 412.878 389.471 412.875 389.059L411.75 389.062L412.031 389.719L411.75 389.962L410.812 389.517L410.496 389.772C408.988 390.971 407.793 391.568 405.938 392.059L405.188 391.309C404.363 391.585 404.238 391.954 403.815 392.69C403.45 393.327 403.012 393.832 402.543 394.394C403.754 389.762 405.724 385.137 407.183 380.549C409.644 372.809 411.559 364.321 414.934 356.957Z"/>
	<defs>
		<linearGradient id="gradient_11" gradientUnits="userSpaceOnUse" x1="383.43799" y1="154.312" x2="394.117" y2="232.5">
			<stop offset="0" stop-color="#B8974A"/>
			<stop offset="1" stop-color="#F3DEA7"/>
		</linearGradient>
	</defs>
	<path fill="url(#gradient_11)" transform="scale(0.666667 0.666667)" d="M260.883 217.766C254.629 215.887 248.537 214.305 242.053 213.479C283.89 204.085 327.311 194.305 363.349 169.837C370.778 164.793 376.966 158.414 384.005 152.923C390.237 159.198 396.624 165.187 403.799 170.396C432.702 191.382 469.631 202.015 503.912 210.35C507.861 211.31 511.874 212.038 515.91 212.515C518.123 212.776 520.659 212.663 522.773 213.254C519.203 214.367 515.621 215.396 512.011 216.374C509.895 216.947 507.843 216.966 506.155 218.486L505.975 218.473C504.07 218.021 502.009 218.19 500.059 218.2C493.315 217.51 486.658 216.93 479.958 215.843C456.15 211.983 431.529 204.459 410.486 192.506C405.39 189.612 400.398 186.367 395.761 182.784C393.92 181.362 389.867 177.148 387.737 176.703C385.939 176.347 383.117 175.643 381.466 176.537C381.076 176.749 381.078 176.771 381.011 177.163C380.788 178.464 381.116 180.01 381.135 181.351C381.178 184.338 381.188 187.327 381.184 190.314C381.182 191.836 381.376 193.356 380.738 194.769L380.419 176.574C374.213 180.503 368.476 185.049 362.149 188.842C340.304 201.939 315.472 210.326 290.454 214.825C284.684 215.862 278.88 216.669 273.031 217.094C270.668 217.266 268.293 217.431 265.925 217.483C264.299 217.518 262.453 217.321 260.883 217.766Z"/>
	<path fill="#213C3F" transform="scale(0.666667 0.666667)" d="M198.373 267.538L198.31 219.896C216.228 223.726 234.451 225.686 252.412 229.386C268.316 232.662 284.56 237.682 299.021 245.092C320.443 256.071 338.761 272.668 351.836 292.873C352.146 293.352 353.074 294.588 353.067 295.089L352.871 296.106L352.688 295.5L351.941 294.75C351.546 294.316 351.193 294.021 351.188 293.434C350.77 293.016 350.444 292.922 350.438 292.309L350.177 291.993C349.264 290.868 348.434 289.552 347.627 288.373C347.473 288.149 347.34 287.704 347.25 287.438L346.316 286.688L346.312 286.309C345.864 285.86 345.194 285.452 345.188 284.809C344.635 284.256 344.443 284.319 344.438 283.5L344.174 283.296C343.037 282.394 342.652 281.261 341.535 280.358C340.765 279.734 340.293 278.776 339.562 278.059C338.849 277.358 337.319 276.191 337.312 275.25C336.069 274.11 334.818 272.508 333.375 271.688L333.934 272.438L333.678 272.684C333.255 273.109 333.402 272.96 333 273.559L332.256 273.578C331.191 273.62 330.708 273.906 330 274.688L329.998 275.248L329.25 275.438L328.688 276.559L328.125 276.562L328.026 276.941C327.597 278.005 326.175 279.052 325.498 280.031L324.75 280.688L324.748 281.248L324.092 282.375L323.968 282.838C323.793 283.417 323.667 283.483 323.25 283.875L322.312 284.809L321.75 284.25L321.188 284.809L320.719 284.344C320.067 285.101 319.539 285.699 318.75 286.309L318.184 286.875C318.759 288.015 320.805 289.169 320.812 290.25C321.629 291.094 322.927 291.856 323.248 292.969C323.903 293.633 325.306 294.599 325.312 295.5L325.815 295.928C326.819 296.804 327.174 297.889 328.309 298.688L328.498 299.344L328.944 299.783C329.743 300.583 330.11 301.362 330.75 302.25L331.498 303.002C331.871 303.413 331.957 303.819 332.248 304.219L333.184 305.062C333.438 306.06 334.054 306.283 334.498 307.219L335.059 307.875L335.189 308.325L334.315 308.256C337.401 313.439 340.714 318.43 343.543 323.769C348.653 333.413 352.613 343.609 356.008 353.966C357.763 359.318 359.625 364.946 360.696 370.471C361.411 373.604 362.623 377.161 362.766 380.371C362.074 379.653 361.894 379.527 361.691 378.562L361.502 377.623C361.192 376.502 361.171 375.235 360.792 374.181L360.283 372.75C360.01 371.274 359.387 369.893 359.625 368.438L359.062 368.434L358.688 368.809L353.25 368.809C352.009 368.6 351.275 368.563 350.204 367.761C349.753 367.423 349.459 367.197 348.941 366.938L348.467 367.125C348.467 368.398 349.254 368.854 349.451 370.014C349.566 370.688 349.587 370.587 350.059 371.062C350 371.731 350.018 371.965 350.329 372.587C350.72 373.367 350.556 372.868 350.809 373.688L351.184 374.812L351.559 375.188C351.456 376.21 351.668 376.66 352.145 377.524C352.507 378.18 352.245 379.576 352.216 380.354C350.896 377.244 349.98 373.883 348.782 370.711C346.976 365.928 344.86 361.245 342.596 356.662C329.283 329.721 310.25 305.706 288.135 285.464C283.468 281.192 278.662 276.625 273.456 273.013C273.702 273.709 273.834 274.14 274.393 274.656L274.781 274.969C273.47 275.135 273.231 274.981 272.062 274.316L271.873 273.377L271.594 273.377L270.938 273.566L270.188 272.816L270 273.188C269.292 272.72 269.294 272.816 268.5 272.816L267.938 272.441L267.656 272.814L266.812 271.691L266.625 272.062C266.027 271.977 265.691 271.901 265.16 271.582L264.75 271.312L264.375 271.312L263.906 270.844L262.781 270.844L262.125 270.938L261.656 270.469L260.906 270.564L260.25 270.188L259.781 270.189L259.125 269.812L258.656 269.814L258 269.438C257.292 269.438 256.683 268.967 256.031 268.969C254.807 268.971 255.42 268.78 254.531 268.594C253.522 268.383 251.468 268.505 250.406 268.594L249.75 268.688C248.868 267.805 244.507 268.212 243.094 268.219L241.477 268.172L241.125 268.125L240.566 268.688L238.043 268.547L237.562 268.5L236.998 268.502L236.438 268.316C235.932 268.18 235.454 268.12 234.947 267.951L234.373 267.752C233.584 267.492 232.845 267.249 232.125 266.816C231.378 266.367 231.456 266.441 230.625 266.441C229.811 265.899 229.679 266.12 228.75 266.25L228.281 265.877L227.906 266.156L227.156 265.502L226.781 265.781L226.031 265.127C225.585 265.421 225.857 265.277 225.188 265.5L225.184 264.938L224.625 264.566L224.156 265.031L223.79 264.562C223.199 264.507 223.296 264.477 222.75 264.562L222.281 264.656L221.812 264.375L221.156 264.281L220.688 264L220.031 263.906L219.562 263.625C218.499 263.271 219.265 263.811 218.537 263.291C218.099 262.978 218.031 263.062 217.5 263.062L216.938 262.125L216.281 262.406L216 261.938L215.438 261.75L214.781 261.469L214.406 261.656L214.031 261.469L213.75 260.812L213.188 260.625L212.531 260.344L212.156 260.531L211.406 259.969L211.031 260.156L210.656 259.969C210.319 259.181 209.161 258.849 208.406 258.094L208.031 258.281L207.375 257.625L206.812 258L206.438 257.25L205.781 257.531L205.312 257.25L204.656 257.531L204 257.25L203.438 257.625C202.18 257.086 202.82 256.289 201.562 255.75C201.443 256.37 201.298 256.662 200.906 257.156L199.969 257.156C199.945 256.246 199.751 255.792 199.312 255L199.257 265.066L199.309 265.5C198.724 266.09 198.618 266.762 198.373 267.538Z"/>
	<defs>
		<linearGradient id="gradient_12" gradientUnits="userSpaceOnUse" x1="226.688" y1="237.562" x2="208.07899" y2="343.06299">
			<stop offset="0" stop-color="#B99B54"/>
			<stop offset="1" stop-color="#E5CF93"/>
		</linearGradient>
	</defs>
	<path fill="url(#gradient_12)" transform="scale(0.666667 0.666667)" d="M240.781 247.329C237.633 245.307 234.573 243.085 231.298 241.274C227.779 239.33 224.046 237.791 220.415 236.068C237.63 238.186 254.912 242.992 270.446 250.753C293.088 262.063 312.496 280.009 327.978 299.844C329.631 301.962 331.232 304.122 332.831 306.281C333.147 306.707 333.928 308.012 334.315 308.256C337.401 313.439 340.714 318.43 343.543 323.769C348.653 333.413 352.613 343.609 356.008 353.966C357.763 359.318 359.625 364.946 360.696 370.471C361.411 373.604 362.623 377.161 362.766 380.371C362.074 379.653 361.894 379.527 361.691 378.562L361.502 377.623C361.192 376.502 361.171 375.235 360.792 374.181L360.283 372.75C360.01 371.274 359.387 369.893 359.625 368.438L359.062 368.434L358.688 368.809L353.25 368.809C352.009 368.6 351.275 368.563 350.204 367.761C349.753 367.423 349.459 367.197 348.941 366.938L348.467 367.125C348.467 368.398 349.254 368.854 349.451 370.014C349.566 370.688 349.587 370.587 350.059 371.062C350 371.731 350.018 371.965 350.329 372.587C350.72 373.367 350.556 372.868 350.809 373.688L351.184 374.812L351.559 375.188C351.456 376.21 351.668 376.66 352.145 377.524C352.507 378.18 352.245 379.576 352.216 380.354C350.896 377.244 349.98 373.883 348.782 370.711C346.976 365.928 344.86 361.245 342.596 356.662C329.283 329.721 310.25 305.706 288.135 285.464C283.468 281.192 278.662 276.625 273.456 273.013C273.084 272.194 271.03 270.868 270.24 270.224C266.208 266.94 261.641 263.811 257.953 260.162C255.723 258.858 253.651 256.942 251.585 255.367C248.013 252.646 244.351 250.051 240.781 247.329Z"/>
	<path fill="#A28844" transform="scale(0.666667 0.666667)" d="M240.781 247.329C241.824 247.311 243.025 247.112 243.938 247.691C245.085 247.225 244.594 246.453 245.998 246.416L246.938 246.338C247.421 246.647 247.665 246.938 248.25 246.938L248.625 247.316C249.684 247.44 250.125 247.464 251.062 246.933L252.036 247.312L251.719 247.781L254.059 249.562L253.5 249.938L253.498 250.498L253.403 250.956C253.261 251.664 253.309 251.303 253.309 252.188L252.75 252.562L252.748 253.123L252.188 253.309L251.719 252.844C252.066 254.129 252.623 253.951 253.123 255.002C253.437 255.662 254.198 256.265 254.73 256.742C255.317 257.269 255.074 257.017 255.562 257.625L256.123 257.627C256.959 258.475 257.435 259.091 257.953 260.162C255.723 258.858 253.651 256.942 251.585 255.367C248.013 252.646 244.351 250.051 240.781 247.329Z"/>
	<defs>
		<linearGradient id="gradient_13" gradientUnits="userSpaceOnUse" x1="199.312" y1="255.188" x2="199.368" y2="391.00101">
			<stop offset="0" stop-color="#062B2D"/>
			<stop offset="1" stop-color="#007C61"/>
		</linearGradient>
	</defs>
	<path fill="url(#gradient_13)" transform="scale(0.666667 0.666667)" d="M198.373 267.538C198.618 266.762 198.724 266.09 199.309 265.5L199.257 265.066L199.312 255C199.751 255.792 199.945 256.246 199.969 257.156L200.906 257.156C201.298 256.662 201.443 256.37 201.562 255.75C202.82 256.289 202.18 257.086 203.438 257.625L204 257.25L204.656 257.531L205.312 257.25L205.781 257.531L206.438 257.25L206.812 258L207.375 257.625L208.031 258.281L208.406 258.094C209.161 258.849 210.319 259.181 210.656 259.969L211.031 260.156L211.406 259.969L212.156 260.531L212.531 260.344L213.188 260.625L213.75 260.812L214.031 261.469L214.406 261.656L214.781 261.469L215.438 261.75L216 261.938L216.281 262.406L216.938 262.125L217.5 263.062C218.031 263.062 218.099 262.978 218.537 263.291C219.265 263.811 218.499 263.271 219.562 263.625L220.031 263.906L220.688 264L221.156 264.281L221.812 264.375L222.281 264.656L222.75 264.562C223.296 264.477 223.199 264.507 223.79 264.562L224.156 265.031L224.625 264.566L225.184 264.938L225.188 265.5C225.857 265.277 225.585 265.421 226.031 265.127L226.781 265.781L227.156 265.502L227.906 266.156L228.281 265.877L228.75 266.25C229.679 266.12 229.811 265.899 230.625 266.441C231.456 266.441 231.378 266.367 232.125 266.816C232.845 267.249 233.584 267.492 234.373 267.752L234.947 267.951C235.454 268.12 235.932 268.18 236.438 268.316L236.998 268.502L237.562 268.5L238.043 268.547L240.566 268.688L241.125 268.125L241.477 268.172L243.094 268.219C244.507 268.212 248.868 267.805 249.75 268.688L250.406 268.594C251.468 268.505 253.522 268.383 254.531 268.594C255.42 268.78 254.807 268.971 256.031 268.969C256.683 268.967 257.292 269.438 258 269.438L258.656 269.814L259.125 269.812L259.781 270.189L260.25 270.188L260.906 270.564L261.656 270.469L262.125 270.938L262.781 270.844L263.906 270.844L264.375 271.312L264.75 271.312L265.16 271.582C265.691 271.901 266.027 271.977 266.625 272.062L266.812 271.691L267.656 272.814L267.938 272.441L268.5 272.816C269.294 272.816 269.292 272.72 270 273.188L270.188 272.816L270.938 273.566L271.594 273.377L271.873 273.377L272.062 274.316C273.231 274.981 273.47 275.135 274.781 274.969L274.393 274.656C273.834 274.14 273.702 273.709 273.456 273.013C278.662 276.625 283.468 281.192 288.135 285.464C310.25 305.706 329.283 329.721 342.596 356.662C344.86 361.245 346.976 365.928 348.782 370.711C349.98 373.883 350.896 377.244 352.216 380.354C353.261 384.824 354.504 388.749 354.917 393.357C351.669 390.73 348.782 387.706 345.659 384.937C340.697 380.538 335.537 376.49 330.055 372.755C305.292 355.88 275.916 345.135 247.195 337.297C231.052 332.891 214.953 329.151 198.434 326.432L198.269 305.452L198.313 273.292L198.373 267.538Z"/>
	<path fill="#2E9D91" transform="scale(0.666667 0.666667)" d="M198.313 273.292L198.429 280.276C206.297 283.401 214.299 286.163 222.09 289.488C228.811 292.356 235.334 295.738 241.92 298.9C262.119 308.596 281.776 319.39 299.721 332.901C303.424 335.689 307.823 338.385 311.1 341.614L198.269 305.452L198.313 273.292Z"/>
	<path fill="#111C20" transform="scale(0.666667 0.666667)" d="M380.738 194.769C381.376 193.356 381.182 191.836 381.184 190.314C381.188 187.327 381.178 184.338 381.135 181.351C381.116 180.01 380.788 178.464 381.011 177.163C381.078 176.771 381.076 176.749 381.466 176.537C383.117 175.643 385.939 176.347 387.737 176.703C389.867 177.148 393.92 181.362 395.761 182.784C400.398 186.367 405.39 189.612 410.486 192.506C431.529 204.459 456.15 211.983 479.958 215.843C486.658 216.93 493.315 217.51 500.059 218.2L495.773 218.438C495.693 219.463 495.626 220.439 495.703 221.469C492.837 221.631 489.055 223.187 486.255 224.027C467.248 229.733 448.399 237.902 432.763 250.306C414.38 264.889 398.356 283.897 389.717 305.869C387.2 312.271 385.144 318.649 384.369 325.501C383.159 317.4 381.072 310.633 377.561 303.225C367.643 282.299 353.139 263.224 334.433 249.393C325.118 242.505 314.275 236.777 303.528 232.418C289.552 226.749 275.063 222.79 260.883 217.766C262.453 217.321 264.299 217.518 265.925 217.483C268.293 217.431 270.668 217.266 273.031 217.094C278.88 216.669 284.684 215.862 290.454 214.825C315.472 210.326 340.304 201.939 362.149 188.842C368.476 185.049 374.213 180.503 380.419 176.574L380.738 194.769Z"/>
	<path fill="#FAFCFC" transform="scale(0.666667 0.666667)" d="M413.795 219.657C415.691 216.863 419.486 211.85 422.577 210.474C424.612 212.349 426.377 214.233 428.079 216.415C426.692 218.726 425.134 220.899 423.572 223.093C422.954 223.961 422.263 225.208 421.433 225.85C421.138 225.742 421.344 225.839 420.945 225.372L421.688 224.625L421.691 224.062L422.438 223.5L422.441 222.188C421.831 221.553 421.251 220.96 420.546 220.428C420.152 220.131 419.829 219.865 419.474 219.516C418.852 218.906 418.344 218.255 417.492 217.97L417.002 217.873L416.438 217.684L415.406 218.531C414.982 219.115 414.946 219.403 414.376 219.933L413.795 219.657Z"/>
	<path fill="#CEB575" transform="scale(0.666667 0.666667)" d="M380.738 194.769C381.376 193.356 381.182 191.836 381.184 190.314C381.188 187.327 381.178 184.338 381.135 181.351C381.116 180.01 380.788 178.464 381.011 177.163C381.078 176.771 381.076 176.749 381.466 176.537C383.117 175.643 385.939 176.347 387.737 176.703C388.427 193.261 388.53 209.749 388.549 226.32C388.559 235.328 388.868 244.461 388.376 253.447C387.798 264.011 385.418 274.415 384.755 284.93L383.626 284.933C380.806 268.34 380.716 251.409 380.705 234.632C380.697 221.344 380.701 208.057 380.738 194.769Z"/>
	<defs>
		<linearGradient id="gradient_14" gradientUnits="userSpaceOnUse" x1="383.81201" y1="297.18799" x2="411.96399" y2="215.991">
			<stop offset="0" stop-color="#D3AE64"/>
			<stop offset="1" stop-color="#E8DAB7"/>
		</linearGradient>
	</defs>
	<path fill="url(#gradient_14)" transform="scale(0.666667 0.666667)" d="M421.433 225.85C418.54 230.409 415.283 234.731 412.359 239.276C402.078 255.253 392.392 272.373 388.06 291C387.54 293.238 387.228 297.459 384.439 297.978L383.438 298.085C382.213 297.087 382.075 295.108 381.729 293.625C380.945 290.266 380.062 286.93 378.955 283.661C377.363 278.959 375.301 274.295 373.24 269.778C367.908 258.096 361.506 246.677 354.218 236.106C349.658 229.491 344.391 223.179 340.218 216.326C341.813 214.081 343.526 212.171 345.691 210.453C361.442 225.491 372.322 244.957 378.124 265.889C379.465 270.724 380.68 275.598 382.019 280.437C382.366 281.692 382.694 284.085 383.626 284.933L384.755 284.93C385.595 284.436 385.388 284.477 385.626 283.576C387.686 275.765 389.148 267.787 391.511 260.062C394.648 249.807 399.725 240.532 405.371 231.47C407.717 227.706 410.631 222.706 413.795 219.657L414.376 219.933C414.946 219.403 414.982 219.115 415.406 218.531L416.438 217.684L417.002 217.873L417.492 217.97C418.344 218.255 418.852 218.906 419.474 219.516C419.829 219.865 420.152 220.131 420.546 220.428C421.251 220.96 421.831 221.553 422.441 222.188L422.438 223.5L421.691 224.062L421.688 224.625L420.945 225.372C421.344 225.839 421.138 225.742 421.433 225.85Z"/>
	<path fill="#0B6A5B" transform="scale(0.666667 0.666667)" d="M496.8 235.954L571.071 221.012L571.114 280.24L570.43 310.198C570.452 313.742 570.474 317.287 570.492 320.831C570.502 322.615 570.766 324.844 570.346 326.562C538.017 333.032 505.51 339.294 475.197 352.832C465.976 356.951 457.041 361.968 448.536 367.403C440.632 372.454 432.75 377.771 425.392 383.596C423.15 385.371 420.912 387.147 418.778 389.052C416.954 390.68 415.173 392.566 413.062 393.805L412.689 393.361L412.9 392.213C414.74 388.722 415.461 383.558 416.743 379.716C418.874 373.33 421.592 367.308 424.418 361.213C423.781 361.569 423.93 361.41 423.519 361.869L423.281 362.156L422.812 361.691C422.332 362.172 422.56 362.001 421.948 362.368L421.502 362.627L421.316 363.187L420.188 363.375L419.062 362.066L418.781 362.531L418.312 362.066L417.375 362.25L416.906 361.877C416.441 362.184 416.736 362.047 415.969 362.156L415.594 361.877C414.841 361.877 414.645 361.665 414 361.312L414.188 360.375C414.397 359.327 414.99 358.421 415.296 357.379L414.934 356.957C415.853 353.632 417.324 350.43 418.53 347.199C421.163 340.145 423.797 333.008 427.073 326.222C428.559 323.144 430.051 320.028 431.594 316.981C432.502 315.189 433.699 313.522 434.198 311.559C434.43 309.527 436.091 307.284 437.106 305.522C442.37 296.392 448.68 288.5 455.654 280.651C455.765 280.651 458.814 277.525 459.131 277.213C464.088 272.319 469.241 267.662 474.585 263.195L491.481 250.834C493.163 250.283 495.031 248.841 496.647 248.004C499.825 246.358 503.068 244.945 506.356 243.542L505.149 243.317L504.75 243.562L504.094 243.752L503.625 244.033C502.462 244.421 503.427 243.792 502.5 244.408C501.837 244.849 502.437 244.583 501.562 244.875L501.561 241.594L502.498 241.406C503.649 240.983 502.468 241.214 503.652 241.014L504.17 240.938C503.609 240.585 503.088 240.323 502.468 240.097L501.75 239.821L499.875 238.691L499.312 238.316C498.117 238.79 497.68 238.619 496.5 238.316C496.237 237.538 496.419 237.916 495.938 237.191L495.75 237.938L494.998 237.752L494.809 237.188C495.209 236.989 495.679 236.779 496.125 236.717L496.8 236.686L496.8 235.954Z"/>
	<path fill="#69E1D5" transform="scale(0.666667 0.666667)" d="M570.43 310.198L570.188 306.751C568.564 306.591 566.77 307.09 565.179 307.407C561.245 308.19 557.341 309.236 553.46 310.243C530.727 316.141 508.166 323.033 486.102 331.079C476.451 334.598 467.119 338.99 457.438 342.389C459.232 340.05 462.419 338.041 464.767 336.215C477.292 326.478 491.374 318.64 505.236 311.01C520.095 302.831 534.941 295.268 550.516 288.515C557.246 285.597 564.157 282.535 571.114 280.24L570.43 310.198Z"/>
	<defs>
		<linearGradient id="gradient_15" gradientUnits="userSpaceOnUse" x1="489.93799" y1="255.562" x2="519.40601" y2="307.11801">
			<stop offset="0" stop-color="#A48E47"/>
			<stop offset="1" stop-color="#D7BB6E"/>
		</linearGradient>
	</defs>
	<path fill="url(#gradient_15)" transform="scale(0.666667 0.666667)" d="M506.356 243.542C507.424 243.605 510.221 242.214 511.416 241.838C518.313 239.666 534.548 234.371 541.166 237.337L548.134 236.832C539.794 240.97 532.429 246.48 524.885 251.875C507.527 264.287 491.169 277.417 475.82 292.273C469.024 298.851 462.409 305.474 456.384 312.779C446.537 324.716 437.947 337.059 430.294 350.511C429.677 351.594 424.805 361.084 424.418 361.213C423.781 361.569 423.93 361.41 423.519 361.869L423.281 362.156L422.812 361.691C422.332 362.172 422.56 362.001 421.948 362.368L421.502 362.627L421.316 363.187L420.188 363.375L419.062 362.066L418.781 362.531L418.312 362.066L417.375 362.25L416.906 361.877C416.441 362.184 416.736 362.047 415.969 362.156L415.594 361.877C414.841 361.877 414.645 361.665 414 361.312L414.188 360.375C414.397 359.327 414.99 358.421 415.296 357.379L414.934 356.957C415.853 353.632 417.324 350.43 418.53 347.199C421.163 340.145 423.797 333.008 427.073 326.222C428.559 323.144 430.051 320.028 431.594 316.981C432.502 315.189 433.699 313.522 434.198 311.559C434.43 309.527 436.091 307.284 437.106 305.522C442.37 296.392 448.68 288.5 455.654 280.651C455.765 280.651 458.814 277.525 459.131 277.213C464.088 272.319 469.241 267.662 474.585 263.195L491.481 250.834C493.163 250.283 495.031 248.841 496.647 248.004C499.825 246.358 503.068 244.945 506.356 243.542Z"/>
	<path fill="#263F3A" transform="scale(0.666667 0.666667)" d="M455.654 280.651C455.765 280.651 458.814 277.525 459.131 277.213C464.088 272.319 469.241 267.662 474.585 263.195C474.395 263.802 474.356 264.056 474.369 264.719L474.814 265.405C463.114 275.609 452.127 286.195 442.832 298.691C439.731 302.859 437.097 307.264 434.198 311.559C434.43 309.527 436.091 307.284 437.106 305.522C442.37 296.392 448.68 288.5 455.654 280.651Z"/>
	<path fill="#213C3F" transform="scale(0.666667 0.666667)" d="M506.356 243.542C507.424 243.605 510.221 242.214 511.416 241.838C518.313 239.666 534.548 234.371 541.166 237.337C535.429 238.449 529.637 239.231 523.952 240.603C505.464 245.066 489.749 253.926 474.814 265.405L474.369 264.719C474.356 264.056 474.395 263.802 474.585 263.195L491.481 250.834C493.163 250.283 495.031 248.841 496.647 248.004C499.825 246.358 503.068 244.945 506.356 243.542Z"/>
</svg>
